<svg xmlns="http://www.w3.org/2000/svg" viewBox="0 0 32 20"><path d="M29 0H3a3 3 0 00-3 3v14a3 3 0 003 3h26a3 3 0 003-3V3a3 3 0 00-3-3zM14.4 15.9a9.15 9.15 0 01-1.7.1 6.45 6.45 0 01-2-.3 4.35 4.35 0 01-1.6-1A5.6 5.6 0 018 12.8a7.89 7.89 0 01-.4-2.8 8.36 8.36 0 01.5-2.9 5.16 5.16 0 011.2-1.9 4.25 4.25 0 011.7-1 9.91 9.91 0 011.8-.2 8.62 8.62 0 011.7.1 8.11 8.11 0 011.1.3l-.4 1.9-.9-.3H13a2.7 2.7 0 00-2.2 1 4.47 4.47 0 00-.8 3 7.77 7.77 0 00.2 1.6 3.1 3.1 0 00.6 1.3 3.92 3.92 0 001 .8 3.19 3.19 0 001.4.3 5.28 5.28 0 001.3-.1 3.55 3.55 0 00.9-.4l.5 1.8a9.38 9.38 0 01-1.5.6zm8.7 0a9.15 9.15 0 01-1.7.1 6.45 6.45 0 01-2-.3 4.35 4.35 0 01-1.6-1 4 4 0 01-1.1-1.9 7.89 7.89 0 01-.4-2.8 8.36 8.36 0 01.5-2.9A5.16 5.16 0 0118 5.2a4.25 4.25 0 011.7-1 9.91 9.91 0 011.8-.2 8.62 8.62 0 011.7.1 8.11 8.11 0 011.1.3l-.4 1.9L23 6h-1.3a2.7 2.7 0 00-2.2 1 4.47 4.47 0 00-.8 3 7.77 7.77 0 00.2 1.6 3.1 3.1 0 00.6 1.3 3.92 3.92 0 001 .8 3.19 3.19 0 001.4.3 5.28 5.28 0 001.3-.1 3.55 3.55 0 00.9-.4l.5 1.8a9.38 9.38 0 01-1.5.6z"/></svg>